<svg width="18" height="15" viewBox="0 0 18 15" fill="none" xmlns="http://www.w3.org/2000/svg">
<path fill-rule="evenodd" clip-rule="evenodd" d="M4.53033 0.46967C4.82322 0.762563 4.82322 1.23744 4.53033 1.53033L2.81066 3.25H12C15.1756 3.25 17.75 5.82436 17.75 9C17.75 12.1756 15.1756 14.75 12 14.75H5.00001C4.58579 14.75 4.25001 14.4142 4.25001 14C4.25001 13.5858 4.58579 13.25 5.00001 13.25H12C14.3472 13.25 16.25 11.3472 16.25 9C16.25 6.65279 14.3472 4.75 12 4.75H2.81066L4.53033 6.46967C4.82322 6.76256 4.82322 7.23744 4.53033 7.53033C4.23744 7.82322 3.76256 7.82322 3.46967 7.53033L0.46967 4.53033C0.176777 4.23744 0.176777 3.76256 0.46967 3.46967L3.46967 0.46967C3.76256 0.176777 4.23744 0.176777 4.53033 0.46967Z" fill="#1C274C"/>
</svg>
