<svg width="20" height="20" viewBox="0 0 20 20" fill="none" xmlns="http://www.w3.org/2000/svg">
<path fill-rule="evenodd" clip-rule="evenodd" d="M8.30924 0.250019H11.6907C11.9071 0.249881 12.0956 0.249761 12.2736 0.278188C12.9769 0.390494 13.5855 0.829147 13.9145 1.46084C13.9977 1.62073 14.0572 1.79961 14.1255 2.00494L14.2371 2.33984C14.256 2.39653 14.2614 2.41258 14.266 2.42522C14.4411 2.90933 14.8952 3.23659 15.4098 3.24964C15.4233 3.24998 15.4399 3.25004 15.5 3.25004H18.5C18.9142 3.25004 19.25 3.58582 19.25 4.00004C19.25 4.41425 18.9142 4.75004 18.5 4.75004H1.49988C1.08566 4.75004 0.749878 4.41425 0.749878 4.00004C0.749878 3.58582 1.08566 3.25004 1.49988 3.25004H4.49996C4.56001 3.25004 4.57658 3.24998 4.59011 3.24964C5.10476 3.23659 5.55878 2.90936 5.7339 2.42524C5.73851 2.41251 5.7438 2.39681 5.76279 2.33984L5.8744 2.00496C5.94269 1.79964 6.0022 1.62073 6.08546 1.46084C6.41441 0.829149 7.02301 0.390494 7.72631 0.278188C7.90433 0.249761 8.09285 0.249881 8.30924 0.250019ZM7.00803 3.25004C7.05954 3.14902 7.10518 3.04404 7.14445 2.93548C7.15638 2.90251 7.16807 2.86742 7.1831 2.82234L7.2829 2.52292C7.37407 2.24941 7.39506 2.19363 7.41589 2.15364C7.52554 1.94307 7.7284 1.79686 7.96284 1.75942C8.00736 1.75231 8.06691 1.75004 8.35522 1.75004H11.6447C11.933 1.75004 11.9926 1.75231 12.0371 1.75942C12.2715 1.79686 12.4744 1.94307 12.584 2.15364C12.6049 2.19363 12.6258 2.2494 12.717 2.52292L12.8168 2.82216L12.8555 2.9355C12.8947 3.04405 12.9404 3.14902 12.9919 3.25004H7.00803Z" fill="#1C274C"/>
<path d="M3.91497 6.45015C3.88741 6.03685 3.53004 5.72415 3.11674 5.7517C2.70344 5.77925 2.39074 6.13663 2.41829 6.54993L2.88174 13.5017C2.96723 14.7844 3.03629 15.8205 3.19827 16.6336C3.36667 17.4789 3.65309 18.185 4.24468 18.7385C4.83628 19.2919 5.55982 19.5308 6.41447 19.6425C7.2365 19.7501 8.27492 19.7501 9.56048 19.75H10.4394C11.7249 19.7501 12.7634 19.7501 13.5854 19.6425C14.4401 19.5308 15.1636 19.2919 15.7552 18.7385C16.3468 18.185 16.6333 17.4789 16.8017 16.6336C16.9636 15.8206 17.0327 14.7844 17.1182 13.5017L17.5816 6.54993C17.6092 6.13663 17.2965 5.77925 16.8832 5.7517C16.4699 5.72415 16.1125 6.03685 16.085 6.45015L15.625 13.3493C15.5352 14.6971 15.4711 15.6349 15.3306 16.3406C15.1942 17.025 15.0039 17.3873 14.7305 17.6431C14.4571 17.8989 14.0829 18.0647 13.3909 18.1552C12.6775 18.2485 11.7375 18.25 10.3866 18.25H9.61328C8.26244 18.25 7.32243 18.2485 6.60903 18.1552C5.91703 18.0647 5.54287 17.8989 5.26946 17.6431C4.99604 17.3873 4.80571 17.025 4.66936 16.3406C4.52879 15.6349 4.46477 14.6971 4.37491 13.3493L3.91497 6.45015Z" fill="#1C274C"/>
<path d="M7.42534 8.25376C7.8375 8.21254 8.20503 8.51325 8.24625 8.92541L8.74625 13.9254C8.78746 14.3376 8.48676 14.7051 8.0746 14.7463C7.66244 14.7875 7.29491 14.4868 7.25369 14.0747L6.75369 9.07467C6.71248 8.66251 7.01318 8.29498 7.42534 8.25376Z" fill="#1C274C"/>
<path d="M12.5746 8.25376C12.9868 8.29498 13.2875 8.66251 13.2462 9.07467L12.7462 14.0747C12.705 14.4868 12.3375 14.7875 11.9253 14.7463C11.5132 14.7051 11.2125 14.3376 11.2537 13.9254L11.7537 8.92541C11.7949 8.51325 12.1624 8.21254 12.5746 8.25376Z" fill="#1C274C"/>
</svg>
