<svg width="24" height="25" viewBox="0 0 24 25" fill="none" xmlns="http://www.w3.org/2000/svg">
<mask id="mask0_513_416" style="mask-type:alpha" maskUnits="userSpaceOnUse" x="1" y="1" width="23" height="23">
<ellipse cx="12.0002" cy="12.5" rx="11.0002" ry="11" fill="#D9D9D9"/>
</mask>
<g mask="url(#mask0_513_416)">
<rect y="0.5" width="24.0004" height="24" fill="#FF616D"/>
</g>
<path d="M11.4476 6.56003C11.6219 6.48327 11.8103 6.44372 12.0007 6.44388C12.1911 6.44392 12.3793 6.48364 12.5534 6.56048C12.7275 6.63732 12.8837 6.74961 13.012 6.89018C13.1403 7.03075 13.2378 7.19652 13.2985 7.37691C13.3591 7.5573 13.3815 7.74835 13.3642 7.93788L12.8182 13.9469C12.797 14.1489 12.7017 14.3359 12.5508 14.4718C12.3998 14.6078 12.2039 14.683 12.0007 14.683C11.7976 14.683 11.6017 14.6078 11.4507 14.4718C11.2997 14.3359 11.2045 14.1489 11.1832 13.9469L10.6357 7.93788C10.6184 7.74823 10.6409 7.55705 10.7016 7.37656C10.7623 7.19606 10.8601 7.03022 10.9885 6.88963C11.117 6.74904 11.2733 6.63678 11.4476 6.56003Z" fill="white"/>
<path d="M13.3093 17.2476C13.3093 17.9703 12.7234 18.5561 12.0008 18.5561C11.2781 18.5561 10.6923 17.9703 10.6923 17.2476C10.6923 16.525 11.2781 15.9392 12.0008 15.9392C12.7234 15.9392 13.3093 16.525 13.3093 17.2476Z" fill="white"/>
</svg>
