<svg width="18" height="15" viewBox="0 0 18 15" fill="none" xmlns="http://www.w3.org/2000/svg">
<path fill-rule="evenodd" clip-rule="evenodd" d="M13.4697 0.46967C13.7626 0.176777 14.2374 0.176777 14.5303 0.46967L17.5303 3.46967C17.8232 3.76256 17.8232 4.23744 17.5303 4.53033L14.5303 7.53033C14.2374 7.82322 13.7626 7.82322 13.4697 7.53033C13.1768 7.23744 13.1768 6.76256 13.4697 6.46967L15.1893 4.75H6.00001C3.6528 4.75 1.75 6.65279 1.75 9C1.75 11.3472 3.65279 13.25 6 13.25H13C13.4142 13.25 13.75 13.5858 13.75 14C13.75 14.4142 13.4142 14.75 13 14.75H6C2.82436 14.75 0.25 12.1756 0.25 9C0.250004 5.82436 2.82437 3.25 6.00001 3.25H15.1893L13.4697 1.53033C13.1768 1.23744 13.1768 0.762563 13.4697 0.46967Z" fill="#1C274C"/>
</svg>
