<svg width="15" height="16" viewBox="0 0 15 16" fill="none" xmlns="http://www.w3.org/2000/svg">
<path fill-rule="evenodd" clip-rule="evenodd" d="M6.88448 1.83331C3.66282 1.83331 1.05115 4.44499 1.05115 7.66665C1.05115 10.8883 3.66282 13.5 6.88448 13.5C10.1061 13.5 12.7178 10.8883 12.7178 7.66665C12.7178 4.44499 10.1061 1.83331 6.88448 1.83331ZM0.0511475 7.66665C0.0511475 3.8927 3.11053 0.833313 6.88448 0.833313C10.6584 0.833313 13.7178 3.8927 13.7178 7.66665C13.7178 9.37365 13.0919 10.9345 12.0571 12.1321L14.238 14.3131C14.4333 14.5084 14.4333 14.8249 14.238 15.0202C14.0428 15.2155 13.7262 15.2155 13.5309 15.0202L11.35 12.8392C10.1523 13.8741 8.59149 14.5 6.88448 14.5C3.11053 14.5 0.0511475 11.4406 0.0511475 7.66665Z" fill="#727272"/>
</svg>
